<svg xmlns="http://www.w3.org/2000/svg" viewBox="0 0 180 180">
  <rect width="180" height="180" rx="40" fill="#7c3aed"/>
  <g transform="translate(30 30)" fill="none" stroke="#ffffff" stroke-width="9" stroke-linecap="round" stroke-linejoin="round">
    <path d="M60 25a15 15 0 1 0-29.985.625 20 20 0 0 0-12.63 28.85 20 20 0 0 0 2.78 32.94A20 20 0 0 0 60 90Z"/>
    <path d="M60 25a15 15 0 1 1 29.985.625 20 20 0 0 1 12.63 28.85 20 20 0 0 1-2.78 32.94A20 20 0 0 1 60 90Z"/>
    <path d="M75 65a22.5 22.5 0 0 1-15-20 22.5 22.5 0 0 1-15 20"/>
    <path d="M87.995 32.5a15 15 0 0 0 1.995-6.875"/>
    <path d="M30.015 25.625A15 15 0 0 0 32.005 32.5"/>
    <path d="M17.385 54.48a20 20 0 0 1 2.925-1.98"/>
    <path d="M99.69 52.5a20 20 0 0 1 2.925 1.98"/>
    <path d="M30 90a20 20 0 0 1-9.835-2.58"/>
    <path d="M99.835 87.42A20 20 0 0 1 90 90"/>
  </g>
</svg>
